<?xml version="1.0" encoding="utf-8"?>
<!-- Generator: Adobe Illustrator 16.0.0, SVG Export Plug-In . SVG Version: 6.00 Build 0)  -->
<!DOCTYPE svg PUBLIC "-//W3C//DTD SVG 1.1//EN" "http://www.w3.org/Graphics/SVG/1.1/DTD/svg11.dtd">
<svg version="1.1" id="Layer_1" xmlns="http://www.w3.org/2000/svg" xmlns:xlink="http://www.w3.org/1999/xlink" x="0px" y="0px"
	 width="159.791px" height="189.594px" viewBox="0 0 159.791 189.594" enable-background="new 0 0 159.791 189.594"
	 xml:space="preserve">
<path fill="none" d="M125.62,12.091l3.402,10.19c13.215,4.934,22.213,12.355,22.213,22.532c0,20.635-37.009,30.017-71.333,30.017
	c-34.317,0-71.313-9.382-71.313-30.017c0-10.908,10.381-18.648,25.205-23.564l3.333-9.997C16.163,16.82,0,27.35,0,44.8v19.431
	C0,74.735,5.877,82.72,15.092,88.635l3.396,79.504c0,11.849,28.102,21.456,62.746,21.456c34.651,0,62.746-9.606,62.746-21.456
	l3.48-81.458c7.588-5.692,12.331-13.048,12.331-22.45V44.794C159.829,28.176,145.141,17.84,125.62,12.091z M42.105,169.773
	c-4.083-2.455-8.773-7.248-10.01-10.606c-8.639-23.686-6.262-42.239-4.531-64.444c6.408,2.409,13.553,4.216,21.02,5.517
	c-1.858,22.815-3.685,42.232,0.025,67.161C49.16,171.067,46.161,172.208,42.105,169.773z M94.667,171.509
	c-0.16,3.813-5.928,7.35-13.016,7.35c-7.101,0-12.855-3.556-13.016-7.363c-1.083-25.717-0.275-45.667,0.583-68.988
	c3.583,0.192,7.165,0.327,10.689,0.327c4.659,0,9.421-0.18,14.177-0.513C94.942,125.727,95.757,145.741,94.667,171.509z
	 M131.195,159.18c-1.23,3.409-5.889,8.145-9.997,10.593c-4.063,2.435-6.972,1.288-6.466-2.365
	c3.762-25.14,1.839-44.693-0.045-67.744c7.568-1.493,14.656-3.577,20.937-6.274C137.354,116.191,140.007,135.013,131.195,159.18z
	 M44.2,44.365c4.512,1.487,9.369-0.936,10.882-5.422h-0.02l6.621-19.879h39.13l6.626,19.879c1.205,3.595,4.537,5.871,8.126,5.871
	c0.884,0,1.82-0.148,2.711-0.449c4.466-1.5,6.947-6.357,5.428-10.843l-8.593-25.75c-1.263-3.499-4.48-5.87-8.094-5.87H55.505
	c-3.666,0-6.96,2.365-8.132,5.87l-8.581,25.73C37.292,38.007,39.714,42.865,44.2,44.365z"/>
</svg>
