<?xml version="1.0" encoding="utf-8"?>
<!-- Generator: Adobe Illustrator 16.0.0, SVG Export Plug-In . SVG Version: 6.00 Build 0)  -->
<!DOCTYPE svg PUBLIC "-//W3C//DTD SVG 1.1//EN" "http://www.w3.org/Graphics/SVG/1.1/DTD/svg11.dtd">
<svg version="1.1" id="Layer_1" xmlns="http://www.w3.org/2000/svg" xmlns:xlink="http://www.w3.org/1999/xlink" x="0px" y="0px"
	 width="159.791px" height="189.594px" viewBox="0 0 159.791 189.594" enable-background="new 0 0 159.791 189.594"
	 xml:space="preserve">
<g>
	<path d="M157.594,25.124c0-4.016-3.254-7.27-7.268-7.27H9.695c-4.014,0-7.267,3.254-7.267,7.27v5.561
		c0,4.016,3.253,7.269,7.267,7.269h5.596v80.632c0,4.016,3.254,7.269,7.268,7.269h30.917L34.66,172.216h16.197l18.818-46.362H90.11
		l18.559,46.362h16.163l-18.557-46.362h31.188c4.014,0,7.268-3.253,7.268-7.269V37.953h5.596c4.014,0,7.268-3.253,7.268-7.269
		V25.124z M23.867,37.149h112.288v80.129H23.867V37.149z"/>
	<path d="M66.974,73.946c0.688,0.197,1.411,0.308,2.163,0.308c1.286,0,2.496-0.316,3.567-0.863l11.138,11.293
		c-0.515,1.047-0.81,2.219-0.81,3.463c0,4.347,3.521,7.868,7.867,7.868c4.345,0,7.868-3.521,7.868-7.868
		c0-1.79-0.604-3.436-1.611-4.759l13.577-20.363c0.628,0.164,1.283,0.255,1.962,0.255c4.344,0,7.868-3.521,7.868-7.868
		c0-4.347-3.524-7.868-7.868-7.868c-4.345,0-7.868,3.521-7.868,7.868c0,1.909,0.681,3.66,1.813,5.022L93.185,80.618
		c-0.723-0.22-1.489-0.339-2.285-0.339c-1.335,0-2.592,0.335-3.692,0.921L76.133,69.974c0.553-1.079,0.871-2.295,0.871-3.589
		c0-4.349-3.524-7.868-7.868-7.868s-7.868,3.519-7.868,7.868c0,1.834,0.634,3.521,1.69,4.859L49.587,91.48
		c-0.716-0.213-1.474-0.331-2.259-0.331c-4.344,0-7.868,3.521-7.868,7.868c0,4.346,3.524,7.868,7.868,7.868
		c4.346,0,7.868-3.522,7.868-7.868c0-1.801-0.609-3.455-1.625-4.778L66.974,73.946z"/>
</g>
</svg>
