<?xml version="1.0" encoding="utf-8"?>
<!-- Generator: Adobe Illustrator 16.0.0, SVG Export Plug-In . SVG Version: 6.00 Build 0)  -->
<!DOCTYPE svg PUBLIC "-//W3C//DTD SVG 1.1//EN" "http://www.w3.org/Graphics/SVG/1.1/DTD/svg11.dtd">
<svg version="1.1" id="Layer_1" xmlns="http://www.w3.org/2000/svg" xmlns:xlink="http://www.w3.org/1999/xlink" x="0px" y="0px"
	 width="155.729px" height="189.594px" viewBox="0 0 155.729 189.594" enable-background="new 0 0 155.729 189.594"
	 xml:space="preserve">
<path fill="#010101" d="M67.869,83.495V32.603c0-1.193-0.397-1.987-1.193-2.783c-0.794-0.397-1.59-0.794-2.783-0.794
	c-0.794,0-1.59,0.397-2.385,0.794c-0.796,0.796-1.193,1.59-1.193,2.783v50.893c0,1.193,0.397,1.989,1.193,2.386
	c0.794,0.794,1.59,1.193,2.385,1.193c1.193,0,1.989-0.399,2.783-1.193C67.472,85.484,67.869,84.688,67.869,83.495z M144.209,123.255
	c0,1.989-0.797,3.977-2.387,5.17c-1.193,1.591-3.181,2.385-5.168,2.385H88.146l-5.964,54.869c0,0.794-0.397,1.591-1.193,2.385
	c-0.397,0.398-1.191,0.796-2.385,0.796l0,0c-1.988,0-3.181-1.193-3.578-3.181l-8.748-54.869H20.554
	c-1.988,0-3.976-0.794-5.169-2.385c-1.59-1.193-2.385-3.181-2.385-5.17c0-9.145,3.181-17.493,9.145-25.048
	c5.964-7.555,12.723-11.132,20.277-11.132v-58.05c-3.975,0-7.554-1.59-10.336-4.374c-2.784-2.783-4.374-6.361-4.374-10.337
	c0-3.977,1.59-7.158,4.374-10.338C34.867,1.193,38.447,0,42.422,0h72.363c3.977,0,7.554,1.193,10.338,3.976
	c2.783,3.181,4.374,6.361,4.374,10.338c0,3.976-1.591,7.554-4.374,10.337c-2.784,2.784-6.361,4.374-10.338,4.374v58.05
	c7.554,0,14.314,3.578,20.278,11.132C141.028,105.762,144.209,114.11,144.209,123.255z"/>
</svg>
