<?xml version="1.0" encoding="utf-8"?>
<!-- Generator: Adobe Illustrator 16.0.0, SVG Export Plug-In . SVG Version: 6.00 Build 0)  -->
<!DOCTYPE svg PUBLIC "-//W3C//DTD SVG 1.1//EN" "http://www.w3.org/Graphics/SVG/1.1/DTD/svg11.dtd">
<svg version="1.1" id="Layer_1" xmlns="http://www.w3.org/2000/svg" xmlns:xlink="http://www.w3.org/1999/xlink" x="0px" y="0px"
	 width="154.77px" height="154.567px" viewBox="0 0 154.77 154.567" enable-background="new 0 0 154.77 154.567"
	 xml:space="preserve">
<path fill="none" d="M94.019,0c33.557,0,60.751,27.493,60.751,61.414c0,33.924-27.195,61.414-60.751,61.414
	c-13.193,0-25.402-4.25-35.36-11.472c-0.141,0.162-0.288,0.317-0.435,0.471L19.258,151.22c-4.412,4.462-11.526,4.462-15.946,0
	c-4.416-4.462-4.416-11.652,0-16.118l38.97-39.401c0.266-0.273,0.554-0.532,0.842-0.766c-6.222-9.641-9.838-21.157-9.838-33.528
	C33.278,27.493,60.472,0,94.019,0L94.019,0L94.019,0z M94.019,13.301c-26.288,0-47.588,21.541-47.588,48.113
	c0,26.579,21.307,48.121,47.595,48.121c26.283,0,47.595-21.542,47.595-48.121C141.621,34.842,120.309,13.301,94.019,13.301"/>
</svg>
