<?xml version="1.0" encoding="utf-8"?>
<!-- Generator: Adobe Illustrator 16.0.0, SVG Export Plug-In . SVG Version: 6.00 Build 0)  -->
<!DOCTYPE svg PUBLIC "-//W3C//DTD SVG 1.1//EN" "http://www.w3.org/Graphics/SVG/1.1/DTD/svg11.dtd">
<svg version="1.1" id="Layer_1" xmlns="http://www.w3.org/2000/svg" xmlns:xlink="http://www.w3.org/1999/xlink" x="0px" y="0px"
	 width="188.22px" height="189.594px" viewBox="0 0 188.22 189.594" enable-background="new 0 0 188.22 189.594"
	 xml:space="preserve">
<path fill="none" d="M179.794,100.729c-10.507-2.82-12.881-27.453-4.272-32.431c2.831-1.639,5.021-3.955,6.471-6.635
	c-2.243-8.172-9.903-19.951-14.213-25.182c-3.153-0.146-6.381,0.566-9.314,2.264c-9.412,5.431-28.836-9.094-25.939-19.906
	c0.904-3.386,0.426-7.481-0.301-9.877c-5.345-2.758-18.006-6.478-27.402-7.397c-2.022,1.478-4.345,5.029-5.242,8.44
	C96.507,21.435,72.244,23.1,67.039,14.078c-1.735-3.002-4.941-5.812-7.153-6.729C53.812,9.19,40.6,16.844,35.262,21.27
	c0.367,3.131,0.441,6.771,2.234,9.874c5.198,9.014-8.881,29.061-20.013,26.076c-3.654-0.975-7.5-0.698-10.624,0.595
	C4.272,63.523,0.368,78.599,0,84.669c0.743,1.658,5.133,4.569,8.661,5.518c15.139,4.062,15.256,26.259,4.287,32.585
	c-3.103,1.794-5.758,4.276-6.86,7.405c1.846,5.893,9.25,18.851,14.036,24.379c3.139,0.372,6.771-0.437,9.889-2.234
	c9.793-5.661,29.38,7.649,26.072,20.009c-0.86,3.217-0.383,6.602,0.169,9.926c7.375,3.136,20.704,7.536,28.071,7.356
	c2.39-2.221,3.875-5.294,4.713-8.438c2.897-10.821,26.828-14.274,32.475-4.48c1.581,2.735,3.794,5.338,6.375,6.812
	c7.727-2.214,21.329-9.823,25.939-14.613c0.183-3.5-1.133-6.422-2.766-9.26c-6.116-10.576,8.161-29.104,19.903-25.954
	c3.213,0.864,6.72,0.574,9.669-0.166c2.573-6.451,6.852-17.969,7.587-27.553C185.639,103.023,183.191,101.642,179.794,100.729z
	 M144.025,107.873c-7.169,26.755-34.667,42.633-61.414,35.465c-26.756-7.169-42.629-34.678-35.461-61.433
	c7.168-26.759,34.667-42.633,61.421-35.457C135.32,53.613,151.193,81.118,144.025,107.873z"/>
</svg>
