<?xml version="1.0" encoding="utf-8"?>
<!-- Generator: Adobe Illustrator 16.0.0, SVG Export Plug-In . SVG Version: 6.00 Build 0)  -->
<!DOCTYPE svg PUBLIC "-//W3C//DTD SVG 1.1//EN" "http://www.w3.org/Graphics/SVG/1.1/DTD/svg11.dtd">
<svg version="1.1" id="Layer_1" xmlns="http://www.w3.org/2000/svg" xmlns:xlink="http://www.w3.org/1999/xlink" x="0px" y="0px"
	 width="200px" height="200px" viewBox="0 0 200 200" enable-background="new 0 0 200 200" xml:space="preserve">
<g>
	<g>
		<path fill-rule="evenodd" clip-rule="evenodd" fill="#FFFFFF" d="M70.97,47.505l12.467,78.061c11.375,0,17.933,0,29.308,0
			l12.467-78.061C105.524,47.505,90.656,47.505,70.97,47.505L70.97,47.505z M75.308,49.989c15.155,0,30.313,0,45.467,0
			l-9.598,64.017c-8.757,0-17.515,0-26.274,0L75.308,49.989z"/>
		<polygon fill-rule="evenodd" clip-rule="evenodd" fill="#E6E7E8" points="70.97,47.505 83.437,125.565 98.178,125.565 
			98.178,114.006 84.904,114.006 75.308,49.989 98.178,49.989 98.178,47.505 		"/>
		<path fill-rule="evenodd" clip-rule="evenodd" fill="#A5C3D2" d="M78.766,73.056l6.138,40.95c8.759,0,17.517,0,26.274,0
			l6.605-44.052L78.766,73.056z"/>
		<path fill-rule="evenodd" clip-rule="evenodd" fill="#0095DA" d="M83.941,65.748l7.392-1.445c2.033-0.397,4.021,0.94,4.419,2.973
			l1.375,7.034c0.397,2.033-0.94,4.021-2.973,4.418l-7.392,1.446c-2.033,0.397-4.021-0.94-4.418-2.973l-1.375-7.034
			C80.57,68.134,81.908,66.146,83.941,65.748z"/>
		<path fill-rule="evenodd" clip-rule="evenodd" fill="#FFFFFF" d="M96.604,71.638l0.522,2.673c0.397,2.032-0.94,4.021-2.973,4.418
			l-7.392,1.446c-2.032,0.397-4.021-0.94-4.418-2.973l-0.853-4.361L96.604,71.638z"/>
		<path fill-rule="evenodd" clip-rule="evenodd" fill="#0095DA" d="M104.207,62.574l7.475,0.928
			c2.055,0.255,3.528,2.146,3.273,4.202l-0.885,7.113c-0.255,2.055-2.146,3.528-4.201,3.273l-7.475-0.929
			c-2.055-0.255-3.528-2.146-3.272-4.202l0.883-7.113C100.261,63.792,102.152,62.318,104.207,62.574z"/>
		<path fill-rule="evenodd" clip-rule="evenodd" fill="#FFFFFF" d="M114.644,70.203l-0.573,4.614
			c-0.256,2.055-2.146,3.528-4.201,3.272l-7.475-0.929c-2.055-0.254-3.527-2.146-3.272-4.201l0.191-1.538L114.644,70.203z"/>
		<path fill-rule="evenodd" clip-rule="evenodd" fill="#FFFFFF" d="M93.895,78.447l7.426-1.256c2.043-0.346,3.996,1.042,4.342,3.085
			l1.195,7.067c0.346,2.042-1.043,3.996-3.085,4.341l-7.426,1.256c-2.042,0.345-3.996-1.043-4.341-3.085l-1.195-7.067
			C90.464,80.747,91.852,78.793,93.895,78.447z"/>
		<polygon fill-rule="evenodd" clip-rule="evenodd" fill="#FFFFFF" points="107.135,52.935 112.141,52.935 105.98,68.338 		"/>
	</g>
</g>
<polygon opacity="0.3" fill-rule="evenodd" clip-rule="evenodd" points="70.97,47.505 83.437,125.565 112.744,125.565 -12.5,252 
	-79.5,191 "/>
</svg>
